<svg width="306" height="342" viewBox="0 0 306 342" fill="none" xmlns="http://www.w3.org/2000/svg">
<path d="M49.5321 14.0072L25.1929 38.7039V130.829H13.9905V177.756H4.06659V322.923H290.196V14.0072H49.5321ZM274.44 275.956H146.132L115.802 306.684H19.0279V135.533H29.9409V47.2939H93.1424H152.489H256.61V90.5714H274.44V275.956Z" fill="url(#paint0_linear_104_778)"/>
<path d="M250.58 16.7186L243.963 23.4308L237.348 16.7186L233.6 20.5188L240.217 27.2337L233.6 33.9459L237.345 37.7488L243.963 31.0339L250.58 37.7488L254.325 33.9459L247.71 27.2337L254.325 20.5188L250.58 16.7186Z" fill="#EBEBEB" fill-opacity="0.9"/>
<path d="M19.508 114.98H15.6696V111.085H13.4993V114.98H9.66092V117.182H13.4993V121.077H15.6696V117.182L19.508 117.185V114.98Z" fill="#EBEBEB" fill-opacity="0.9"/>
<path d="M19.508 101.018H15.6696V97.126H13.4993V101.018H9.66092V103.223H13.4993V107.115H15.6696V103.223H19.508V101.018Z" fill="#EBEBEB" fill-opacity="0.9"/>
<path d="M19.508 87.059H15.6696V83.1669L13.4993 83.1642V87.059H9.66092V89.2611H13.4993V93.1559H15.6696V89.2639H19.508V87.059Z" fill="#EBEBEB" fill-opacity="0.9"/>
<path d="M19.508 73.1001L15.6696 73.0974V69.2053H13.4993V73.0974H9.66092V75.3022H13.4993V79.1943H15.6696V75.3022H19.508V73.1001Z" fill="#EBEBEB" fill-opacity="0.9"/>
<path d="M19.5079 59.1384H15.6695V55.2465H13.4992V59.1384H9.66083V61.3406L13.4992 61.3434V65.2354H15.6695V61.3434H19.5079V59.1384Z" fill="#EBEBEB" fill-opacity="0.9"/>
<path d="M305.693 297.286V215.698H288.545V0H181.815L159.24 22.9094H47.1449V42.3972H261.907V86.054L263.276 84.6592H280.424V86.054H279.058V110.18V280.76H149.234L93.5047 337.305H29.1902C28.8692 335.916 27.7004 334.861 26.2353 334.861C24.526 334.861 23.1404 336.267 23.1404 338.001C23.1404 339.736 24.526 341.142 26.2353 341.142C27.7004 341.142 28.872 340.086 29.193 338.697H94.0754L149.799 282.152H280.424V108.791V86.054H261.907L263.276 84.6592V41.008H48.5139V24.3041H159.806L182.381 1.39475H287.168V217.093H304.316V295.896H238.468V301.242C237.099 301.565 236.059 302.753 236.059 304.24C236.059 305.974 237.444 307.38 239.154 307.38C240.863 307.38 242.248 305.974 242.248 304.24C242.248 302.753 241.209 301.565 239.839 301.242V297.288L305.693 297.286Z" fill="#EBEBEB" fill-opacity="0.9"/>
<path d="M295.448 44.2916H281.386V169.223H295.448V44.2916Z" fill="#EBEBEB" fill-opacity="0.9"/>
<path d="M5.49878 327.069H10.1383L18.309 318.775H13.6694L5.49878 327.069Z" fill="#EBEBEB" fill-opacity="0.9"/>
<path d="M12.2618 327.069H16.9041L25.0748 318.775H20.4352L12.2618 327.069Z" fill="#EBEBEB" fill-opacity="0.9"/>
<path d="M19.0279 327.069H23.6674L31.8409 318.775H27.2013L19.0279 327.069Z" fill="#EBEBEB" fill-opacity="0.9"/>
<path d="M25.7937 327.069H30.4332L38.6039 318.775H33.9644L25.7937 327.069Z" fill="#EBEBEB" fill-opacity="0.9"/>
<path d="M32.5597 327.069H37.1993L45.37 318.775H40.7304L32.5597 327.069Z" fill="#EBEBEB" fill-opacity="0.9"/>
<path d="M7.03783 197.371H0.730133V203.772H7.03783V197.371Z" fill="#EBEBEB" fill-opacity="0.9"/>
<path d="M7.03793 218.251H0.730225V224.651H7.03793V218.251Z" fill="#EBEBEB" fill-opacity="0.9"/>
<path d="M7.03793 239.131H0.730225V245.531H7.03793V239.131Z" fill="#EBEBEB" fill-opacity="0.9"/>
<path d="M7.03793 260.011H0.730225V266.411H7.03793V260.011Z" fill="#EBEBEB" fill-opacity="0.9"/>
<path d="M298.534 177.755H294.419V190.166H298.534V177.755Z" fill="#EBEBEB" fill-opacity="0.9"/>
<path d="M298.534 193.059H294.419V204.42H298.534V193.059Z" fill="#EBEBEB" fill-opacity="0.9"/>
<path d="M298.534 208.365H294.419V218.677H298.534V208.365Z" fill="#EBEBEB" fill-opacity="0.9"/>
<path d="M298.534 223.669H294.419V232.929H298.534V223.669Z" fill="#EBEBEB" fill-opacity="0.9"/>
<path d="M298.534 238.975H294.419V247.185H298.534V238.975Z" fill="#EBEBEB" fill-opacity="0.9"/>
<path d="M298.534 254.279H294.419V261.439H298.534V254.279Z" fill="#EBEBEB" fill-opacity="0.9"/>
<path d="M298.534 269.585H294.419V275.693H298.534V269.585Z" fill="#EBEBEB" fill-opacity="0.9"/>
<path d="M298.534 284.889H294.419V289.947H298.534V284.889Z" fill="#EBEBEB" fill-opacity="0.9"/>
<path d="M298.534 300.192H294.419V304.201H298.534V300.192Z" fill="#EBEBEB" fill-opacity="0.9"/>
<path d="M298.534 315.498H294.419V318.458H298.534V315.498Z" fill="#EBEBEB" fill-opacity="0.9"/>
<path d="M64.5151 28.5227H69.1711L60.8303 36.986H56.1743L64.5151 28.5227ZM83.2187 28.5227H78.5627L70.2219 36.986H74.878L83.2187 28.5227ZM76.1949 28.5227H71.5389L63.1981 36.986H67.8541L76.1949 28.5227ZM111.311 28.5227H106.655L98.3144 36.986H102.97L111.311 28.5227ZM90.2398 28.5227H85.5838L77.243 36.986H81.899L90.2398 28.5227ZM104.287 28.5227H99.6314L91.2906 36.986H95.9467L104.287 28.5227ZM97.2636 28.5227H92.6076L84.2668 36.986H88.9228L97.2636 28.5227Z" fill="#EBEBEB" fill-opacity="0.9"/>
<path d="M231.347 310.355L224.83 303.743L218.313 310.355L224.83 316.968L231.347 310.355Z" fill="#EBEBEB" fill-opacity="0.9"/>
<path d="M250.152 310.355L243.635 303.742L237.119 310.355L243.635 316.967L250.152 310.355Z" fill="#EBEBEB" fill-opacity="0.9"/>
<path d="M268.959 310.356L262.442 303.744L255.925 310.356L262.442 316.968L268.959 310.356Z" fill="#EBEBEB" fill-opacity="0.9"/>
<path d="M287.764 310.355L281.247 303.743L274.731 310.355L281.247 316.968L287.764 310.355Z" fill="#EBEBEB" fill-opacity="0.9"/>
<defs>
<linearGradient id="paint0_linear_104_778" x1="147.131" y1="32.5878" x2="147.131" y2="322.923" gradientUnits="userSpaceOnUse">
<stop stop-color="#F48B33"/>
<stop offset="1" stop-color="#482100"/>
</linearGradient>
</defs>
</svg>
