<svg width="29" height="29" viewBox="0 0 29 29" fill="none" xmlns="http://www.w3.org/2000/svg">
<path d="M14.0795 14.812C17.9674 14.812 21.1192 11.6602 21.1192 7.77219C21.1192 3.88423 17.9674 0.732422 14.0795 0.732422C10.1915 0.732422 7.03975 3.88423 7.03975 7.77219C7.03975 11.6602 10.1915 14.812 14.0795 14.812ZM18.7727 7.77219C18.7727 10.3642 16.6715 12.4654 14.0795 12.4654C11.4875 12.4654 9.38633 10.3642 9.38633 7.77219C9.38633 5.18022 11.4875 3.07901 14.0795 3.07901C16.6715 3.07901 18.7727 5.18022 18.7727 7.77219Z" fill="#FEFE84"/>
<path d="M28.159 26.5449C28.159 28.8915 25.8124 28.8915 25.8124 28.8915H2.34658C2.34658 28.8915 0 28.8915 0 26.5449C0 24.1983 2.34658 17.1586 14.0795 17.1586C25.8124 17.1586 28.159 24.1983 28.159 26.5449ZM25.8124 26.5367C25.809 25.9576 25.4516 24.2228 23.8598 22.6311C22.3292 21.1005 19.4511 19.5051 14.0795 19.5051C8.70789 19.5051 5.82974 21.1005 4.29917 22.6311C2.70738 24.2228 2.34993 25.9576 2.34658 26.5367H25.8124Z" fill="#FEFE84"/>
</svg>
