<svg width="37" height="37" viewBox="0 0 37 37" fill="none" xmlns="http://www.w3.org/2000/svg">
<path d="M0.167725 0.864334V3.13428L11.0179 20.6264L12.0256 19.5574L0.430696 0.864334H0.167725ZM4.90616 0.864334L15.4619 18.0168L15.4531 18.0259L19.8159 25.4999C20.8272 24.6851 21.8355 23.9571 22.8263 23.2824L18.1225 15.2542L16.479 16.9606L6.57357 0.864258H4.90608L4.90616 0.864334ZM11.0077 0.864334L19.6118 14.9978L19.6164 14.9951L24.0102 22.4943C25.1016 21.7791 26.1645 21.1088 27.1777 20.4375L21.8176 11.4177L20.1493 13.1499L12.6702 0.864258L11.0077 0.864334ZM17.1592 0.864334L23.4517 11.3995L23.4567 11.3965L28.3537 19.637C29.4052 18.8986 30.39 18.1327 31.2819 17.2755L25.5096 7.58459L23.854 9.30375L18.8133 0.864486H17.1592L17.1592 0.864334ZM22.9763 0.864334L27.1541 7.59036L27.1626 7.58505L32.2986 16.2077C33.1595 15.2142 33.9053 14.09 34.5062 12.7593L30.1514 5.435L27.9383 6.16169L24.6479 0.864258L22.9763 0.864334ZM28.7612 0.864334L32.2264 6.14618L35.1523 11.0677C35.8029 9.02771 36.1661 6.55474 36.1661 3.45978L32.872 4.54161L30.4598 0.864334H28.7613H28.7612ZM0.167725 11.7977V14.4403L7.27214 25.5886L13.4447 35.4212L16.9895 33.3591L15.8068 31.4752L13.9377 33.4598L8.10171 23.719L9.80415 21.9135L9.11348 20.8133L6.77872 22.1717L0.167725 11.7977ZM14.4294 19.0889L13.9363 19.6008L11.7787 21.8891L15.9928 29.0876C16.8905 28.1011 17.8004 27.2222 18.7122 26.4259L14.4294 19.0888L14.4294 19.0889ZM10.7633 22.9659L9.87208 23.9113L14.1909 31.1196L15.0267 30.2324L14.8924 30.0186L10.7634 22.966L10.7633 22.9659ZM7.77164 29.0551C5.56226 31.2517 2.67952 33.188 0.266576 34.6482C0.258522 35.26 0.399392 35.7459 0.671862 36.0981C0.951321 36.4593 1.39688 36.7252 2.08527 36.8484C4.00395 34.9405 6.56833 32.848 9.09418 31.1616L7.77157 29.0551H7.77164Z" fill="#FAFAFA" fill-opacity="0.9"/>
</svg>
