<svg width="43" height="37" viewBox="0 0 43 37" fill="none" xmlns="http://www.w3.org/2000/svg">
<path d="M10.5835 0.355469C16.4309 0.355469 21.167 4.99898 21.167 10.7273C21.167 4.99898 25.9031 0.355469 31.7505 0.355469C37.5979 0.355469 42.334 4.99898 42.334 10.7273C42.334 19.3608 33.7773 22.4062 22.2042 36.1489C22.0768 36.2998 21.918 36.4211 21.7388 36.5043C21.5597 36.5876 21.3645 36.6307 21.167 36.6307C20.9695 36.6307 20.7744 36.5876 20.5952 36.5043C20.4161 36.4211 20.2573 36.2998 20.1298 36.1489C8.55677 22.4062 0 19.3608 0 10.7273C0 4.99898 4.73612 0.355469 10.5835 0.355469Z" fill="#FAFAFA" fill-opacity="0.9"/>
</svg>
