<svg width="30" height="37" viewBox="0 0 30 37" fill="none" xmlns="http://www.w3.org/2000/svg">
<path d="M28.9026 3.83407C28.6946 3.66539 28.4517 3.54514 28.1914 3.48205C27.9312 3.41896 27.6601 3.41462 27.3979 3.46934C25.4742 3.8755 23.4877 3.88265 21.5611 3.49035C19.6345 3.09805 17.8089 2.31464 16.1972 1.18858C15.8952 0.977475 15.5356 0.864258 15.1671 0.864258C14.7986 0.864258 14.439 0.977475 14.137 1.18858C12.5255 2.31511 10.6999 3.09879 8.77326 3.49111C6.84661 3.88343 4.85992 3.87602 2.93624 3.46934C2.67418 3.41433 2.40314 3.4185 2.1429 3.48155C1.88265 3.54459 1.63976 3.66492 1.43192 3.83377C1.22409 4.00261 1.05656 4.2157 0.941542 4.45752C0.826528 4.69933 0.766929 4.96376 0.767093 5.23154V18.6541C0.769751 21.2322 1.3864 23.7726 2.56601 26.065C3.74562 28.3575 5.45425 30.336 7.55048 31.8368L14.1213 36.5294C14.4265 36.7472 14.7922 36.8643 15.1672 36.8643C15.5422 36.8643 15.9078 36.7472 16.2131 36.5294L22.7838 31.836C24.8801 30.3354 26.5887 28.3571 27.7683 26.0648C28.948 23.7725 29.5645 21.2322 29.5671 18.6542V5.23159C29.5671 4.96392 29.5075 4.69961 29.3925 4.45788C29.2776 4.21614 29.1102 4.00304 28.9026 3.83407Z" fill="#FAFAFA" fill-opacity="0.9"/>
</svg>
