<svg width="41" height="37" viewBox="0 0 41 37" fill="none" xmlns="http://www.w3.org/2000/svg">
<path d="M9.25705 0.630859L31.6412 23.015L35.629 19.0272L38.2813 21.6795L33.6351 26.3256L39.6168 32.3072C40.3504 33.0408 40.3504 34.2259 39.6168 34.9595L38.2813 36.295C37.5477 37.0286 36.3626 37.0286 35.629 36.295L29.5721 30.3322L24.9824 34.9783L22.3302 32.326L26.3179 28.3383L3.93374 5.95414V0.630859H9.25705ZM27.4842 14.8514L36.4002 5.93533V0.630859H31.0769L22.1609 9.54689L27.4842 14.8514ZM18.1731 24.2565L12.8498 18.8579L8.69274 23.015L4.70497 19.0272L2.05272 21.6795L6.69885 26.3256L0.717192 32.326C-0.0164078 33.0596 -0.0164078 34.2447 0.717192 34.9783L2.05272 36.3138C2.78632 37.0474 3.97137 37.0474 4.70497 36.3138L10.7619 30.3322L15.3516 34.9783L18.0038 32.326L14.016 28.3383L18.1731 24.2565Z" fill="#FAFAFA" fill-opacity="0.9"/>
</svg>
