<svg width="39" height="37" viewBox="0 0 39 37" fill="none" xmlns="http://www.w3.org/2000/svg">
<path d="M9.27991 0.847656L7.88403 1.35428C8.39312 2.74933 8.63124 4.15998 8.07289 5.56817C8.44238 5.95902 8.80367 6.34494 9.16495 6.72265C10.1913 4.71833 9.92037 2.60482 9.27991 0.847656ZM7.16146 6.75549C6.60311 6.96898 6.10881 7.23994 5.66131 7.55196C7.89224 9.99884 9.78078 12.61 10.8975 15.1143C11.9403 17.4709 12.3262 19.8192 11.4887 21.7735L29.5365 34.8208C31.7945 34.7058 33.2561 34.1557 34.2578 33.3838C35.3089 32.5792 35.9083 31.5035 36.3434 30.2308C36.1053 29.9681 35.8426 29.7135 35.5552 29.459C33.445 29.8285 31.5975 29.4097 30.062 28.4408C28.4609 27.4391 27.2046 25.8872 26.1371 24.089C24.1254 20.6978 22.7706 16.3706 21.3994 12.7988C17.7455 13.1683 15.0687 12.6592 12.9667 11.6328C10.4541 10.4012 8.80367 8.50444 7.16146 6.75549ZM4.5405 8.52086C4.16526 8.9232 3.83025 9.3666 3.52726 9.84283C2.66018 11.2141 2.0657 12.8809 1.55744 14.597L10.2488 20.8785C10.7168 19.4744 10.4377 17.7172 9.54266 15.7137C8.51628 13.4228 6.70164 10.9021 4.5405 8.52086ZM24.1583 12.38C23.7313 12.4622 23.3208 12.5361 22.9102 12.6017C23.214 13.3982 23.5178 14.2193 23.8216 15.0486L25.9565 16.1243C25.3899 14.8023 24.8316 13.5378 24.1583 12.38ZM0.733049 15.8287C0.509709 16.0668 0.365195 16.3131 0.290475 16.5677C0.189479 16.8961 0.202616 17.2574 0.373406 17.7008L19.9871 30.3786C21.7771 31.5282 23.3864 32.4806 24.848 33.2607L0.733049 15.8287ZM24.5688 17.085C25.1354 18.5876 25.7348 20.0738 26.3999 21.445L29.126 22.652C28.2063 21.1658 27.5002 19.6879 26.8679 18.2427L24.5688 17.085ZM27.5412 23.5552C28.5019 25.1318 29.594 26.4045 30.8503 27.1927C31.7535 27.7593 32.7306 28.0877 33.8719 28.1206C32.6567 27.1024 31.6467 26.0514 30.7846 24.984L27.5412 23.5552ZM37.378 31.6349C36.8936 32.727 36.2121 33.7533 35.1611 34.558C34.225 35.2724 33.0262 35.8061 31.4907 36.0853C32.9277 36.4876 34.0526 36.619 34.9065 36.5861C36.13 36.5369 36.8279 36.2002 37.2549 35.8636C37.6818 35.5269 37.8461 35.1903 37.92 35.0261C38.2074 34.3856 38.1827 33.3921 37.7147 32.2918C37.6244 32.0783 37.5094 31.8566 37.378 31.6349Z" fill="#FAFAFA" fill-opacity="0.9"/>
</svg>
