<svg width="686" height="954" viewBox="0 0 686 954" fill="none" xmlns="http://www.w3.org/2000/svg">
<path fill-rule="evenodd" clip-rule="evenodd" d="M-597.083 862.326H-506.326H-505.41H-414.653H-413.736H-322.979H-322.062H-231.305H-230.389H-139.632H-138.715H-47.9579H-47.0412H43.7158H44.6325H135.389H136.306H227.063H227.98H318.737H319.654H410.41H411.327H502.084H503.001H593.758H594.675H684.515H685.432V863.243V954H-598V863.243V862.326H-597.083ZM593.758 863.243H503.001V953.083H593.758V863.243ZM411.327 863.243H502.084V953.083H411.327V863.243ZM410.41 863.243H319.654V953.083H410.41V863.243ZM227.98 863.243H318.737V953.083H227.98V863.243ZM227.063 863.243H136.306V953.083H227.063V863.243ZM44.6325 863.243H135.389V953.083H44.6325V863.243ZM43.7158 863.243H-47.0412V953.083H43.7158V863.243ZM-138.715 863.243H-47.9579V953.083H-138.715V863.243ZM-139.632 863.243H-230.389V953.083H-139.632V863.243ZM-322.062 863.243H-231.305V953.083H-322.062V863.243ZM-322.979 863.243H-413.736V953.083H-322.979V863.243ZM-505.41 863.243H-414.653V953.083H-505.41V863.243ZM-506.326 863.243H-597.083V953.083H-506.326V863.243ZM594.675 863.243H684.515V953.083H594.675V863.243Z" fill="url(#paint0_radial_176_1016)" fill-opacity="0.9"/>
<path fill-rule="evenodd" clip-rule="evenodd" d="M-597.083 771.569H-506.326H-505.41H-414.653H-413.736H-322.979H-322.062H-231.305H-230.389H-139.632H-138.715H-47.9579H-47.0412H43.7158H44.6325H135.389H136.306H227.063H227.98H318.737H319.654H410.41H411.327H502.084H503.001H593.758H594.675H684.515H685.432V772.486V862.326V863.243H684.515H594.675H593.758H503.001H502.084H411.327H410.41H319.654H318.737H227.98H227.063H136.306H135.389H44.6325H43.7158H-47.0412H-47.9579H-138.715H-139.632H-230.389H-231.305H-322.062H-322.979H-413.736H-414.653H-505.41H-506.326H-597.083H-598V862.326V772.486V771.569H-597.083ZM593.758 772.486H503.001V862.326H593.758V772.486ZM411.327 772.486H502.084V862.326H411.327V772.486ZM410.41 772.486H319.654V862.326H410.41V772.486ZM227.98 772.486H318.737V862.326H227.98V772.486ZM227.063 772.486H136.306V862.326H227.063V772.486ZM44.6325 772.486H135.389V862.326H44.6325V772.486ZM43.7158 772.486H-47.0412V862.326H43.7158V772.486ZM-138.715 772.486H-47.9579V862.326H-138.715V772.486ZM-139.632 772.486H-230.389V862.326H-139.632V772.486ZM-322.062 772.486H-231.305V862.326H-322.062V772.486ZM-322.979 772.486H-413.736V862.326H-322.979V772.486ZM-505.41 772.486H-414.653V862.326H-505.41V772.486ZM-506.326 772.486H-597.083V862.326H-506.326V772.486ZM594.675 772.486H684.515V862.326H594.675V772.486Z" fill="url(#paint1_radial_176_1016)" fill-opacity="0.9"/>
<path fill-rule="evenodd" clip-rule="evenodd" d="M-597.083 680.812H-506.326H-505.41H-414.653H-413.736H-322.979H-322.062H-231.305H-230.389H-139.632H-138.715H-47.9579H-47.0412H43.7158H44.6325H135.389H136.306H227.063H227.98H318.737H319.654H410.41H411.327H502.084H503.001H593.758H594.675H684.515H685.432V681.729V771.569V772.486H684.515H594.675H593.758H503.001H502.084H411.327H410.41H319.654H318.737H227.98H227.063H136.306H135.389H44.6325H43.7158H-47.0412H-47.9579H-138.715H-139.632H-230.389H-231.305H-322.062H-322.979H-413.736H-414.653H-505.41H-506.326H-597.083H-598V771.569V681.729V680.812H-597.083ZM593.758 681.729H503.001V771.569H593.758V681.729ZM411.327 681.729H502.084V771.569H411.327V681.729ZM410.41 681.729H319.654V771.569H410.41V681.729ZM227.98 681.729H318.737V771.569H227.98V681.729ZM227.063 681.729H136.306V771.569H227.063V681.729ZM44.6325 681.729H135.389V771.569H44.6325V681.729ZM43.7158 681.729H-47.0412V771.569H43.7158V681.729ZM-138.715 681.729H-47.9579V771.569H-138.715V681.729ZM-139.632 681.729H-230.389V771.569H-139.632V681.729ZM-322.062 681.729H-231.305V771.569H-322.062V681.729ZM-322.979 681.729H-413.736V771.569H-322.979V681.729ZM-505.41 681.729H-414.653V771.569H-505.41V681.729ZM-506.326 681.729H-597.083V771.569H-506.326V681.729ZM594.675 681.729H684.515V771.569H594.675V681.729Z" fill="url(#paint2_radial_176_1016)" fill-opacity="0.9"/>
<path fill-rule="evenodd" clip-rule="evenodd" d="M-597.083 590.056H-506.326H-505.41H-414.653H-413.736H-322.979H-322.062H-231.305H-230.389H-139.632H-138.715H-47.9579H-47.0412H43.7158H44.6325H135.389H136.306H227.063H227.98H318.737H319.654H410.41H411.327H502.084H503.001H593.758H594.675H684.515H685.432V590.972V680.812V681.729H684.515H594.675H593.758H503.001H502.084H411.327H410.41H319.654H318.737H227.98H227.063H136.306H135.389H44.6325H43.7158H-47.0412H-47.9579H-138.715H-139.632H-230.389H-231.305H-322.062H-322.979H-413.736H-414.653H-505.41H-506.326H-597.083H-598V680.812V590.972V590.056H-597.083ZM593.758 590.972H503.001V680.812H593.758V590.972ZM411.327 590.972H502.084V680.812H411.327V590.972ZM410.41 590.972H319.654V680.812H410.41V590.972ZM227.98 590.972H318.737V680.812H227.98V590.972ZM227.063 590.972H136.306V680.812H227.063V590.972ZM44.6325 590.972H135.389V680.812H44.6325V590.972ZM43.7158 590.972H-47.0412V680.812H43.7158V590.972ZM-138.715 590.972H-47.9579V680.812H-138.715V590.972ZM-139.632 590.972H-230.389V680.812H-139.632V590.972ZM-322.062 590.972H-231.305V680.812H-322.062V590.972ZM-322.979 590.972H-413.736V680.812H-322.979V590.972ZM-505.41 590.972H-414.653V680.812H-505.41V590.972ZM-506.326 590.972H-597.083V680.812H-506.326V590.972ZM594.675 590.972H684.515V680.812H594.675V590.972Z" fill="url(#paint3_radial_176_1016)" fill-opacity="0.9"/>
<path fill-rule="evenodd" clip-rule="evenodd" d="M-597.083 499.299H-506.326H-505.41H-414.653H-413.736H-322.979H-322.062H-231.305H-230.389H-139.632H-138.715H-47.9579H-47.0412H43.7158H44.6325H135.389H136.306H227.063H227.98H318.737H319.654H410.41H411.327H502.084H503.001H593.758H594.675H684.515H685.432V500.215V590.056V590.972H684.515H594.675H593.758H503.001H502.084H411.327H410.41H319.654H318.737H227.98H227.063H136.306H135.389H44.6325H43.7158H-47.0412H-47.9579H-138.715H-139.632H-230.389H-231.305H-322.062H-322.979H-413.736H-414.653H-505.41H-506.326H-597.083H-598V590.056V500.215V499.299H-597.083ZM593.758 500.215H503.001V590.056H593.758V500.215ZM411.327 500.215H502.084V590.056H411.327V500.215ZM410.41 500.215H319.654V590.056H410.41V500.215ZM227.98 500.215H318.737V590.056H227.98V500.215ZM227.063 500.215H136.306V590.056H227.063V500.215ZM44.6325 500.215H135.389V590.056H44.6325V500.215ZM43.7158 500.215H-47.0412V590.056H43.7158V500.215ZM-138.715 500.215H-47.9579V590.056H-138.715V500.215ZM-139.632 500.215H-230.389V590.056H-139.632V500.215ZM-322.062 500.215H-231.305V590.056H-322.062V500.215ZM-322.979 500.215H-413.736V590.056H-322.979V500.215ZM-505.41 500.215H-414.653V590.056H-505.41V500.215ZM-506.326 500.215H-597.083V590.056H-506.326V500.215ZM594.675 500.215H684.515V590.056H594.675V500.215Z" fill="url(#paint4_radial_176_1016)" fill-opacity="0.9"/>
<path fill-rule="evenodd" clip-rule="evenodd" d="M-597.083 408.542H-506.326H-505.41H-414.653H-413.736H-322.979H-322.062H-231.305H-230.389H-139.632H-138.715H-47.9579H-47.0412H43.7158H44.6325H135.389H136.306H227.063H227.98H318.737H319.654H410.41H411.327H502.084H503.001H593.758H594.675H684.515H685.432V409.458V499.299V500.215H684.515H594.675H593.758H503.001H502.084H411.327H410.41H319.654H318.737H227.98H227.063H136.306H135.389H44.6325H43.7158H-47.0412H-47.9579H-138.715H-139.632H-230.389H-231.305H-322.062H-322.979H-413.736H-414.653H-505.41H-506.326H-597.083H-598V499.299V409.458V408.542H-597.083ZM593.758 409.458H503.001V499.299H593.758V409.458ZM411.327 409.458H502.084V499.299H411.327V409.458ZM410.41 409.458H319.654V499.299H410.41V409.458ZM227.98 409.458H318.737V499.299H227.98V409.458ZM227.063 409.458H136.306V499.299H227.063V409.458ZM44.6325 409.458H135.389V499.299H44.6325V409.458ZM43.7158 409.458H-47.0412V499.299H43.7158V409.458ZM-138.715 409.458H-47.9579V499.299H-138.715V409.458ZM-139.632 409.458H-230.389V499.299H-139.632V409.458ZM-322.062 409.458H-231.305V499.299H-322.062V409.458ZM-322.979 409.458H-413.736V499.299H-322.979V409.458ZM-505.41 409.458H-414.653V499.299H-505.41V409.458ZM-506.326 409.458H-597.083V499.299H-506.326V409.458ZM594.675 409.458H684.515V499.299H594.675V409.458Z" fill="url(#paint5_radial_176_1016)" fill-opacity="0.9"/>
<path fill-rule="evenodd" clip-rule="evenodd" d="M-597.083 317.785H-506.326H-505.41H-414.653H-413.736H-322.979H-322.062H-231.305H-230.389H-139.632H-138.715H-47.9579H-47.0412H43.7158H44.6325H135.389H136.306H227.063H227.98H318.737H319.654H410.41H411.327H502.084H503.001H593.758H594.675H684.515H685.432V318.701V408.542V409.458H684.515H594.675H593.758H503.001H502.084H411.327H410.41H319.654H318.737H227.98H227.063H136.306H135.389H44.6325H43.7158H-47.0412H-47.9579H-138.715H-139.632H-230.389H-231.305H-322.062H-322.979H-413.736H-414.653H-505.41H-506.326H-597.083H-598V408.542V318.701V317.785H-597.083ZM593.758 318.701H503.001V408.542H593.758V318.701ZM411.327 318.701H502.084V408.542H411.327V318.701ZM410.41 318.701H319.654V408.542H410.41V318.701ZM227.98 318.701H318.737V408.542H227.98V318.701ZM227.063 318.701H136.306V408.542H227.063V318.701ZM44.6325 318.701H135.389V408.542H44.6325V318.701ZM43.7158 318.701H-47.0412V408.542H43.7158V318.701ZM-138.715 318.701H-47.9579V408.542H-138.715V318.701ZM-139.632 318.701H-230.389V408.542H-139.632V318.701ZM-322.062 318.701H-231.305V408.542H-322.062V318.701ZM-322.979 318.701H-413.736V408.542H-322.979V318.701ZM-505.41 318.701H-414.653V408.542H-505.41V318.701ZM-506.326 318.701H-597.083V408.542H-506.326V318.701ZM594.675 318.701H684.515V408.542H594.675V318.701Z" fill="url(#paint6_radial_176_1016)" fill-opacity="0.9"/>
<path fill-rule="evenodd" clip-rule="evenodd" d="M-597.083 227.028H-506.326H-505.41H-414.653H-413.736H-322.979H-322.062H-231.305H-230.389H-139.632H-138.715H-47.9579H-47.0412H43.7158H44.6325H135.389H136.306H227.063H227.98H318.737H319.654H410.41H411.327H502.084H503.001H593.758H594.675H684.515H685.432V227.944V317.785V318.701H684.515H594.675H593.758H503.001H502.084H411.327H410.41H319.654H318.737H227.98H227.063H136.306H135.389H44.6325H43.7158H-47.0412H-47.9579H-138.715H-139.632H-230.389H-231.305H-322.062H-322.979H-413.736H-414.653H-505.41H-506.326H-597.083H-598V317.785V227.944V227.028H-597.083ZM593.758 227.944H503.001V317.785H593.758V227.944ZM411.327 227.944H502.084V317.785H411.327V227.944ZM410.41 227.944H319.654V317.785H410.41V227.944ZM227.98 227.944H318.737V317.785H227.98V227.944ZM227.063 227.944H136.306V317.785H227.063V227.944ZM44.6325 227.944H135.389V317.785H44.6325V227.944ZM43.7158 227.944H-47.0412V317.785H43.7158V227.944ZM-138.715 227.944H-47.9579V317.785H-138.715V227.944ZM-139.632 227.944H-230.389V317.785H-139.632V227.944ZM-322.062 227.944H-231.305V317.785H-322.062V227.944ZM-322.979 227.944H-413.736V317.785H-322.979V227.944ZM-505.41 227.944H-414.653V317.785H-505.41V227.944ZM-506.326 227.944H-597.083V317.785H-506.326V227.944ZM594.675 227.944H684.515V317.785H594.675V227.944Z" fill="url(#paint7_radial_176_1016)" fill-opacity="0.9"/>
<path fill-rule="evenodd" clip-rule="evenodd" d="M-597.083 136.271H-506.326H-505.41H-414.653H-413.736H-322.979H-322.062H-231.305H-230.389H-139.632H-138.715H-47.9579H-47.0412H43.7158H44.6325H135.389H136.306H227.063H227.98H318.737H319.654H410.41H411.327H502.084H503.001H593.758H594.675H684.515H685.432V137.188V227.028V227.944H684.515H594.675H593.758H503.001H502.084H411.327H410.41H319.654H318.737H227.98H227.063H136.306H135.389H44.6325H43.7158H-47.0412H-47.9579H-138.715H-139.632H-230.389H-231.305H-322.062H-322.979H-413.736H-414.653H-505.41H-506.326H-597.083H-598V227.028V137.188V136.271H-597.083ZM593.758 137.188H503.001V227.028H593.758V137.188ZM411.327 137.188H502.084V227.028H411.327V137.188ZM410.41 137.188H319.654V227.028H410.41V137.188ZM227.98 137.188H318.737V227.028H227.98V137.188ZM227.063 137.188H136.306V227.028H227.063V137.188ZM44.6325 137.188H135.389V227.028H44.6325V137.188ZM43.7158 137.188H-47.0412V227.028H43.7158V137.188ZM-138.715 137.188H-47.9579V227.028H-138.715V137.188ZM-139.632 137.188H-230.389V227.028H-139.632V137.188ZM-322.062 137.188H-231.305V227.028H-322.062V137.188ZM-322.979 137.188H-413.736V227.028H-322.979V137.188ZM-505.41 137.188H-414.653V227.028H-505.41V137.188ZM-506.326 137.188H-597.083V227.028H-506.326V137.188ZM594.675 137.188H684.515V227.028H594.675V137.188Z" fill="url(#paint8_radial_176_1016)" fill-opacity="0.9"/>
<path fill-rule="evenodd" clip-rule="evenodd" d="M-597.083 45.5139H-506.326H-505.41H-414.653H-413.736H-322.979H-322.062H-231.305H-230.389H-139.632H-138.715H-47.9579H-47.0412H43.7158H44.6325H135.389H136.306H227.063H227.98H318.737H319.654H410.41H411.327H502.084H503.001H593.758H594.675H684.515H685.432V46.4306V136.271V137.188H684.515H594.675H593.758H503.001H502.084H411.327H410.41H319.654H318.737H227.98H227.063H136.306H135.389H44.6325H43.7158H-47.0412H-47.9579H-138.715H-139.632H-230.389H-231.305H-322.062H-322.979H-413.736H-414.653H-505.41H-506.326H-597.083H-598V136.271V46.4306V45.5139H-597.083ZM593.758 46.4306H503.001V136.271H593.758V46.4306ZM411.327 46.4306H502.084V136.271H411.327V46.4306ZM410.41 46.4306H319.654V136.271H410.41V46.4306ZM227.98 46.4306H318.737V136.271H227.98V46.4306ZM227.063 46.4306H136.306V136.271H227.063V46.4306ZM44.6325 46.4306H135.389V136.271H44.6325V46.4306ZM43.7158 46.4306H-47.0412V136.271H43.7158V46.4306ZM-138.715 46.4306H-47.9579V136.271H-138.715V46.4306ZM-139.632 46.4306H-230.389V136.271H-139.632V46.4306ZM-322.062 46.4306H-231.305V136.271H-322.062V46.4306ZM-322.979 46.4306H-413.736V136.271H-322.979V46.4306ZM-505.41 46.4306H-414.653V136.271H-505.41V46.4306ZM-506.326 46.4306H-597.083V136.271H-506.326V46.4306ZM594.675 46.4306H684.515V136.271H594.675V46.4306Z" fill="url(#paint9_radial_176_1016)" fill-opacity="0.9"/>
<path fill-rule="evenodd" clip-rule="evenodd" d="M-597.083 -45.2431H-506.326H-505.41H-414.653H-413.736H-322.979H-322.062H-231.305H-230.389H-139.632H-138.715H-47.9579H-47.0412H43.7158H44.6325H135.389H136.306H227.063H227.98H318.737H319.654H410.41H411.327H502.084H503.001H593.758H594.675H684.515H685.432V-44.3263V45.5139V46.4306H684.515H594.675H593.758H503.001H502.084H411.327H410.41H319.654H318.737H227.98H227.063H136.306H135.389H44.6325H43.7158H-47.0412H-47.9579H-138.715H-139.632H-230.389H-231.305H-322.062H-322.979H-413.736H-414.653H-505.41H-506.326H-597.083H-598V45.5139V-44.3263V-45.2431H-597.083ZM593.758 -44.3263H503.001V45.5139H593.758V-44.3263ZM411.327 -44.3263H502.084V45.5139H411.327V-44.3263ZM410.41 -44.3263H319.654V45.5139H410.41V-44.3263ZM227.98 -44.3263H318.737V45.5139H227.98V-44.3263ZM227.063 -44.3263H136.306V45.5139H227.063V-44.3263ZM44.6325 -44.3263H135.389V45.5139H44.6325V-44.3263ZM43.7158 -44.3263H-47.0412V45.5139H43.7158V-44.3263ZM-138.715 -44.3263H-47.9579V45.5139H-138.715V-44.3263ZM-139.632 -44.3263H-230.389V45.5139H-139.632V-44.3263ZM-322.062 -44.3263H-231.305V45.5139H-322.062V-44.3263ZM-322.979 -44.3263H-413.736V45.5139H-322.979V-44.3263ZM-505.41 -44.3263H-414.653V45.5139H-505.41V-44.3263ZM-506.326 -44.3263H-597.083V45.5139H-506.326V-44.3263ZM594.675 -44.3263H684.515V45.5139H594.675V-44.3263Z" fill="url(#paint10_radial_176_1016)" fill-opacity="0.9"/>
<path fill-rule="evenodd" clip-rule="evenodd" d="M685.432 -136V-45.2431V-44.3263H684.515H594.675H593.758H503.001H502.084H411.327H410.41H319.654H318.737H227.98H227.063H136.306H135.389H44.6325H43.7158H-47.0412H-47.9579H-138.715H-139.632H-230.389H-231.305H-322.062H-322.979H-413.736H-414.653H-505.41H-506.326H-597.083H-598V-45.2431V-136H685.432ZM593.758 -135.083H503.001V-45.2431H593.758V-135.083ZM411.327 -135.083H502.084V-45.2431H411.327V-135.083ZM410.41 -135.083H319.654V-45.2431H410.41V-135.083ZM227.98 -135.083H318.737V-45.2431H227.98V-135.083ZM227.063 -135.083H136.306V-45.2431H227.063V-135.083ZM44.6325 -135.083H135.389V-45.2431H44.6325V-135.083ZM43.7158 -135.083H-47.0412V-45.2431H43.7158V-135.083ZM-138.715 -135.083H-47.9579V-45.2431H-138.715V-135.083ZM-139.632 -135.083H-230.389V-45.2431H-139.632V-135.083ZM-322.062 -135.083H-231.305V-45.2431H-322.062V-135.083ZM-322.979 -135.083H-413.736V-45.2431H-322.979V-135.083ZM-505.41 -135.083H-414.653V-45.2431H-505.41V-135.083ZM-506.326 -135.083H-597.083V-45.2431H-506.326V-135.083ZM594.675 -135.083H684.515V-45.2431H594.675V-135.083Z" fill="url(#paint11_radial_176_1016)" fill-opacity="0.9"/>
<defs>
<radialGradient id="paint0_radial_176_1016" cx="0" cy="0" r="1" gradientUnits="userSpaceOnUse" gradientTransform="translate(-315.5 39.5) rotate(40.6577) scale(1045.98 1231.61)">
<stop offset="0.0416667" stop-color="#020712"/>
<stop offset="0.946875" stop-color="white" stop-opacity="0"/>
</radialGradient>
<radialGradient id="paint1_radial_176_1016" cx="0" cy="0" r="1" gradientUnits="userSpaceOnUse" gradientTransform="translate(-315.5 39.5) rotate(40.6577) scale(1045.98 1231.61)">
<stop offset="0.0416667" stop-color="#020712"/>
<stop offset="0.946875" stop-color="white" stop-opacity="0"/>
</radialGradient>
<radialGradient id="paint2_radial_176_1016" cx="0" cy="0" r="1" gradientUnits="userSpaceOnUse" gradientTransform="translate(-315.5 39.5) rotate(40.6577) scale(1045.98 1231.61)">
<stop offset="0.0416667" stop-color="#020712"/>
<stop offset="0.946875" stop-color="white" stop-opacity="0"/>
</radialGradient>
<radialGradient id="paint3_radial_176_1016" cx="0" cy="0" r="1" gradientUnits="userSpaceOnUse" gradientTransform="translate(-315.5 39.5) rotate(40.6577) scale(1045.98 1231.61)">
<stop offset="0.0416667" stop-color="#020712"/>
<stop offset="0.946875" stop-color="white" stop-opacity="0"/>
</radialGradient>
<radialGradient id="paint4_radial_176_1016" cx="0" cy="0" r="1" gradientUnits="userSpaceOnUse" gradientTransform="translate(-315.5 39.5) rotate(40.6577) scale(1045.98 1231.61)">
<stop offset="0.0416667" stop-color="#020712"/>
<stop offset="0.946875" stop-color="white" stop-opacity="0"/>
</radialGradient>
<radialGradient id="paint5_radial_176_1016" cx="0" cy="0" r="1" gradientUnits="userSpaceOnUse" gradientTransform="translate(-315.5 39.5) rotate(40.6577) scale(1045.98 1231.61)">
<stop offset="0.0416667" stop-color="#020712"/>
<stop offset="0.946875" stop-color="white" stop-opacity="0"/>
</radialGradient>
<radialGradient id="paint6_radial_176_1016" cx="0" cy="0" r="1" gradientUnits="userSpaceOnUse" gradientTransform="translate(-315.5 39.5) rotate(40.6577) scale(1045.98 1231.61)">
<stop offset="0.0416667" stop-color="#020712"/>
<stop offset="0.946875" stop-color="white" stop-opacity="0"/>
</radialGradient>
<radialGradient id="paint7_radial_176_1016" cx="0" cy="0" r="1" gradientUnits="userSpaceOnUse" gradientTransform="translate(-315.5 39.5) rotate(40.6577) scale(1045.98 1231.61)">
<stop offset="0.0416667" stop-color="#020712"/>
<stop offset="0.946875" stop-color="white" stop-opacity="0"/>
</radialGradient>
<radialGradient id="paint8_radial_176_1016" cx="0" cy="0" r="1" gradientUnits="userSpaceOnUse" gradientTransform="translate(-315.5 39.5) rotate(40.6577) scale(1045.98 1231.61)">
<stop offset="0.0416667" stop-color="#020712"/>
<stop offset="0.946875" stop-color="white" stop-opacity="0"/>
</radialGradient>
<radialGradient id="paint9_radial_176_1016" cx="0" cy="0" r="1" gradientUnits="userSpaceOnUse" gradientTransform="translate(-315.5 39.5) rotate(40.6577) scale(1045.98 1231.61)">
<stop offset="0.0416667" stop-color="#020712"/>
<stop offset="0.946875" stop-color="white" stop-opacity="0"/>
</radialGradient>
<radialGradient id="paint10_radial_176_1016" cx="0" cy="0" r="1" gradientUnits="userSpaceOnUse" gradientTransform="translate(-315.5 39.5) rotate(40.6577) scale(1045.98 1231.61)">
<stop offset="0.0416667" stop-color="#020712"/>
<stop offset="0.946875" stop-color="white" stop-opacity="0"/>
</radialGradient>
<radialGradient id="paint11_radial_176_1016" cx="0" cy="0" r="1" gradientUnits="userSpaceOnUse" gradientTransform="translate(-315.5 39.5) rotate(40.6577) scale(1045.98 1231.61)">
<stop offset="0.0416667" stop-color="#020712"/>
<stop offset="0.946875" stop-color="white" stop-opacity="0"/>
</radialGradient>
</defs>
</svg>
