<svg width="28" height="28" viewBox="0 0 28 28" fill="none" xmlns="http://www.w3.org/2000/svg">
<path d="M6.06645 0C6.54508 0 6.93308 0.388007 6.93308 0.866639V1.73328H20.7993V0.866639C20.7993 0.388007 21.1873 0 21.6659 0C22.1445 0 22.5325 0.388007 22.5325 0.866639V1.73328H24.2658C26.1803 1.73328 27.7323 3.28531 27.7323 5.19983V24.2659C27.7323 26.1804 26.1803 27.7324 24.2658 27.7324H3.46654C1.55203 27.7324 0 26.1804 0 24.2659V5.19983C0 3.28531 1.55202 1.73328 3.46654 1.73328H5.19981V0.866639C5.19981 0.388007 5.58782 0 6.06645 0ZM1.73327 6.93311V24.2659C1.73327 25.2231 2.50928 25.9992 3.46654 25.9992H24.2658C25.2231 25.9992 25.9991 25.2231 25.9991 24.2659V6.93311H1.73327Z" fill="#FEFE84"/>
<path d="M11.2663 12.9996C12.2235 12.9996 12.9995 12.2236 12.9995 11.2663C12.9995 10.309 12.2235 9.53302 11.2663 9.53302C10.309 9.53302 9.53299 10.309 9.53299 11.2663C9.53299 12.2236 10.309 12.9996 11.2663 12.9996Z" fill="#FEFE84"/>
<path d="M16.4661 12.9996C17.4233 12.9996 18.1993 12.2236 18.1993 11.2663C18.1993 10.309 17.4233 9.53302 16.4661 9.53302C15.5088 9.53302 14.7328 10.309 14.7328 11.2663C14.7328 12.2236 15.5088 12.9996 16.4661 12.9996Z" fill="#FEFE84"/>
<path d="M21.6659 12.9996C22.6231 12.9996 23.3992 12.2236 23.3992 11.2663C23.3992 10.309 22.6231 9.53302 21.6659 9.53302C20.7086 9.53302 19.9326 10.309 19.9326 11.2663C19.9326 12.2236 20.7086 12.9996 21.6659 12.9996Z" fill="#FEFE84"/>
<path d="M6.06645 18.1994C7.02371 18.1994 7.79972 17.4234 7.79972 16.4661C7.79972 15.5089 7.02371 14.7329 6.06645 14.7329C5.10919 14.7329 4.33318 15.5089 4.33318 16.4661C4.33318 17.4234 5.10919 18.1994 6.06645 18.1994Z" fill="#FEFE84"/>
<path d="M11.2663 18.1994C12.2235 18.1994 12.9995 17.4234 12.9995 16.4661C12.9995 15.5089 12.2235 14.7329 11.2663 14.7329C10.309 14.7329 9.53299 15.5089 9.53299 16.4661C9.53299 17.4234 10.309 18.1994 11.2663 18.1994Z" fill="#FEFE84"/>
<path d="M16.4661 18.1994C17.4233 18.1994 18.1993 17.4234 18.1993 16.4661C18.1993 15.5089 17.4233 14.7329 16.4661 14.7329C15.5088 14.7329 14.7328 15.5089 14.7328 16.4661C14.7328 17.4234 15.5088 18.1994 16.4661 18.1994Z" fill="#FEFE84"/>
<path d="M21.6659 18.1994C22.6231 18.1994 23.3992 17.4234 23.3992 16.4661C23.3992 15.5089 22.6231 14.7329 21.6659 14.7329C20.7086 14.7329 19.9326 15.5089 19.9326 16.4661C19.9326 17.4234 20.7086 18.1994 21.6659 18.1994Z" fill="#FEFE84"/>
<path d="M6.06645 23.3992C7.02371 23.3992 7.79972 22.6232 7.79972 21.666C7.79972 20.7087 7.02371 19.9327 6.06645 19.9327C5.10919 19.9327 4.33318 20.7087 4.33318 21.666C4.33318 22.6232 5.10919 23.3992 6.06645 23.3992Z" fill="#FEFE84"/>
<path d="M11.2663 23.3992C12.2235 23.3992 12.9995 22.6232 12.9995 21.666C12.9995 20.7087 12.2235 19.9327 11.2663 19.9327C10.309 19.9327 9.53299 20.7087 9.53299 21.666C9.53299 22.6232 10.309 23.3992 11.2663 23.3992Z" fill="#FEFE84"/>
<path d="M16.4661 23.3992C17.4233 23.3992 18.1993 22.6232 18.1993 21.666C18.1993 20.7087 17.4233 19.9327 16.4661 19.9327C15.5088 19.9327 14.7328 20.7087 14.7328 21.666C14.7328 22.6232 15.5088 23.3992 16.4661 23.3992Z" fill="#FEFE84"/>
</svg>
