<svg width="22" height="22" viewBox="0 0 22 22" fill="none" xmlns="http://www.w3.org/2000/svg">
<path d="M6.4024 0.648193C2.98314 0.648193 0.173248 3.3766 0.173248 6.70481V15.1899C0.173248 18.5145 2.97937 21.2465 6.4024 21.2465H15.1292C18.5485 21.2465 21.3584 18.5181 21.3584 15.1899V6.70481C21.3584 3.38025 18.5522 0.648193 15.1292 0.648193H6.4024ZM6.4024 2.52077H15.1292C17.5103 2.52077 19.4324 4.38969 19.4324 6.70481V15.1899C19.4324 17.505 17.5103 19.374 15.1292 19.374H6.4024C4.02133 19.374 2.09917 17.505 2.09917 15.1899V6.70481C2.09917 4.38969 4.02133 2.52077 6.4024 2.52077ZM16.4533 4.5689C15.9681 4.5689 15.5806 4.94561 15.5806 5.41741C15.5806 5.88922 15.9681 6.26593 16.4533 6.26593C16.9385 6.26593 17.326 5.88922 17.326 5.41741C17.326 4.94561 16.9385 4.5689 16.4533 4.5689ZM10.7658 5.32964C7.58729 5.32964 4.98805 7.85689 4.98805 10.9474C4.98805 14.0379 7.58729 16.5651 10.7658 16.5651C13.9443 16.5651 16.5436 14.0379 16.5436 10.9474C16.5436 7.85689 13.9443 5.32964 10.7658 5.32964ZM10.7658 7.20221C12.9061 7.20221 14.6176 8.86632 14.6176 10.9474C14.6176 13.0284 12.9061 14.6925 10.7658 14.6925C8.62548 14.6925 6.91397 13.0284 6.91397 10.9474C6.91397 8.86632 8.62548 7.20221 10.7658 7.20221Z" fill="#927F4E"/>
</svg>
