<svg width="21" height="22" viewBox="0 0 21 22" fill="none" xmlns="http://www.w3.org/2000/svg">
<path d="M0.0913086 1.9817C0.0913086 1.1547 0.778701 0.483887 1.62669 0.483887H19.4647C20.3127 0.483887 21.0001 1.1547 21.0001 1.9817V19.8954C21.0001 20.7227 20.3127 21.3932 19.4647 21.3932L1.62669 21.3932C0.778701 21.3932 0.0913086 20.7227 0.0913086 19.8954V1.9817ZM6.55131 17.9871V8.54542H3.41314V17.9871H6.55131ZM4.98221 7.25631C6.07656 7.25631 6.7577 6.53129 6.7577 5.62523C6.7373 4.69877 6.07656 3.99387 5.00297 3.99387C3.9295 3.99387 3.22763 4.69877 3.22763 5.62523C3.22763 6.53129 3.90862 7.25631 4.96176 7.25631H4.98221ZM11.3969 17.9871V12.7145C11.3969 12.4323 11.4173 12.1504 11.5002 11.9487C11.7271 11.3849 12.2434 10.8009 13.1104 10.8009C14.2459 10.8009 14.7002 11.6668 14.7002 12.936V17.9871H17.8381V12.5734C17.8381 9.67332 16.2899 8.32387 14.2252 8.32387C12.5605 8.32387 11.8141 9.23883 11.397 9.88219V9.91472H11.3761C11.383 9.90396 11.39 9.89311 11.397 9.88219V8.54542H8.25889C8.30007 9.43137 8.25889 17.9871 8.25889 17.9871H11.3969Z" fill="#FAFAFA" fill-opacity="0.9"/>
</svg>
