<svg width="139" height="139" viewBox="0 0 139 139" fill="none" xmlns="http://www.w3.org/2000/svg">
<g clip-path="url(#clip0_235_333)">
<rect x="0.5" y="0.985352" width="138" height="138" rx="69" fill="#323947"/>
<path d="M100.275 57.7678C100.275 74.5711 86.6533 88.1929 69.85 88.1929C53.0467 88.1929 39.425 74.5711 39.425 57.7678C39.425 40.9645 53.0467 27.3428 69.85 27.3428C86.6533 27.3428 100.275 40.9645 100.275 57.7678Z" fill="#10131A"/>
<path d="M9 138.901C9 149.043 19.1417 149.043 19.1417 149.043H120.558C120.558 149.043 130.7 149.043 130.7 138.901C130.7 128.76 120.558 98.3345 69.85 98.3345C19.1417 98.3345 9 128.76 9 138.901Z" fill="#10131A"/>
</g>
<defs>
<clipPath id="clip0_235_333">
<rect x="0.5" y="0.985352" width="138" height="138" rx="69" fill="white"/>
</clipPath>
</defs>
</svg>
