<svg width="26" height="25" viewBox="0 0 26 25" fill="none" xmlns="http://www.w3.org/2000/svg">
<path d="M18.8471 16.1623C20.0827 14.4802 20.8125 12.4034 20.8125 10.1562C20.8125 4.54711 16.2654 0 10.6562 0C5.04711 0 0.5 4.54711 0.5 10.1562C0.5 15.7654 5.04711 20.3125 10.6562 20.3125C12.904 20.3125 14.9813 19.5823 16.6637 18.3461L16.6623 18.3471C16.7084 18.4096 16.7597 18.4694 16.8163 18.526L22.8326 24.5424C23.4428 25.1525 24.4322 25.1525 25.0424 24.5424C25.6525 23.9322 25.6525 22.9428 25.0424 22.3326L19.026 16.3163C18.9694 16.2597 18.9096 16.2084 18.8471 16.1623ZM19.25 10.1562C19.25 14.9024 15.4024 18.75 10.6562 18.75C5.91005 18.75 2.0625 14.9024 2.0625 10.1562C2.0625 5.41005 5.91005 1.5625 10.6562 1.5625C15.4024 1.5625 19.25 5.41005 19.25 10.1562Z" fill="#FAFAFA" fill-opacity="0.9"/>
</svg>
