<svg width="32" height="24" viewBox="0 0 32 24" fill="none" xmlns="http://www.w3.org/2000/svg">
<path d="M22.0397 12.5587C22.0397 15.0261 19.4164 17.02 16.1701 17.02C12.9238 17.02 10.3005 15.0261 10.3005 12.5587C10.3005 10.0913 12.9238 8.09741 16.1701 8.09741C19.4164 8.09741 22.0397 10.0913 22.0397 12.5587Z" stroke="url(#paint0_linear_406_285)" stroke-width="1.36622" stroke-linecap="round" stroke-linejoin="round"/>
<path d="M16.1699 22.9437C21.5813 22.9437 26.6247 20.2193 30.1352 15.504C31.5148 13.6571 31.5148 10.5529 30.1352 8.70604C26.6247 3.99071 21.5813 1.2663 16.1699 1.2663C10.7586 1.2663 5.71514 3.99071 2.20467 8.70604C0.825006 10.5529 0.825006 13.6571 2.20467 15.504C5.71514 20.2193 10.7586 22.9437 16.1699 22.9437Z" stroke="url(#paint1_linear_406_285)" stroke-width="1.36622" stroke-linecap="round" stroke-linejoin="round"/>
<defs>
<linearGradient id="paint0_linear_406_285" x1="11.6049" y1="6.82276" x2="17.906" y2="17.7842" gradientUnits="userSpaceOnUse">
<stop stop-color="#F2F279"/>
<stop offset="1" stop-color="#F2F279"/>
</linearGradient>
<linearGradient id="paint1_linear_406_285" x1="10.3004" y1="1.2663" x2="21.6295" y2="23.1559" gradientUnits="userSpaceOnUse">
<stop stop-color="#F2F279"/>
<stop offset="1" stop-color="#F2F279"/>
</linearGradient>
</defs>
</svg>
