<svg width="24" height="22" viewBox="0 0 24 22" fill="none" xmlns="http://www.w3.org/2000/svg">
<path d="M22.9159 1.13604C22.6143 0.89209 22.2504 0.732207 21.8627 0.673408C21.4751 0.61461 21.0783 0.659096 20.7147 0.802133L1.73183 8.25395C1.32587 8.41635 0.980307 8.69495 0.741004 9.05277C0.501701 9.41059 0.379975 9.83071 0.391985 10.2574C0.403994 10.684 0.54917 11.097 0.808244 11.4416C1.06732 11.7862 1.42804 12.046 1.84252 12.1865L5.68233 13.485L7.82255 20.3665C7.85164 20.4585 7.89385 20.546 7.94795 20.6265C7.95616 20.6388 7.96773 20.648 7.97646 20.66C8.03896 20.7448 8.1145 20.8198 8.20042 20.8823C8.22486 20.9004 8.24826 20.9173 8.27438 20.9334C8.37494 20.9983 8.4863 21.0457 8.60352 21.0736L8.61606 21.0746L8.62317 21.0776C8.69365 21.0915 8.76538 21.0986 8.8373 21.0987C8.84422 21.0987 8.85036 21.0955 8.85721 21.0954C8.96575 21.0935 9.07333 21.0754 9.17614 21.0415C9.20006 21.0336 9.22056 21.0203 9.24377 21.0108C9.32043 20.9799 9.39307 20.9403 9.46016 20.8928C9.51389 20.8488 9.56764 20.8048 9.6214 20.7608L12.4837 17.6881L16.7528 20.9036C17.1286 21.1881 17.5912 21.3427 18.0675 21.3431C18.5666 21.3425 19.0503 21.1751 19.4376 20.8689C19.8248 20.5627 20.092 20.1364 20.1943 19.6614L23.6504 3.16571C23.7287 2.79444 23.7017 2.40946 23.5723 2.05195C23.443 1.69443 23.2161 1.37784 22.9159 1.13604ZM9.25732 13.8129C9.11044 13.9551 9.01004 14.1364 8.96871 14.3339L8.64086 15.8829L7.81034 13.2122L12.1165 11.0319L9.25732 13.8129ZM18.051 19.2752L13.0061 15.4754C12.795 15.3168 12.5303 15.2414 12.2645 15.2641C11.9988 15.2869 11.7517 15.4061 11.5724 15.5981L10.6557 16.5819L10.9796 15.051L18.4823 7.75605C18.6614 7.58216 18.7705 7.35166 18.7899 7.1063C18.8093 6.86094 18.7376 6.61695 18.588 6.41852C18.4383 6.22009 18.2204 6.08034 17.9739 6.02459C17.7274 5.96885 17.4685 6.00079 17.2441 6.11462L6.4765 11.5656L2.53145 10.1619L21.5753 2.75432L18.051 19.2752Z" fill="#927F4E"/>
</svg>
