<svg width="26" height="29" viewBox="0 0 26 29" fill="none" xmlns="http://www.w3.org/2000/svg">
<path d="M10.0065 1.64211C10.0065 1.1397 10.4138 0.732422 10.9162 0.732422H14.5549C15.0573 0.732422 15.4646 1.1397 15.4646 1.64211C15.4646 2.14451 15.0573 2.55179 14.5549 2.55179V3.59055C17.029 3.94458 19.2736 5.00945 21.0752 6.57164C21.0825 6.56376 21.0901 6.55598 21.0977 6.5483L21.741 5.90506L21.0977 5.26181C20.7425 4.90656 20.7425 4.33058 21.0977 3.97533C21.453 3.62007 22.029 3.62007 22.3842 3.97533L24.9572 6.5483C25.3124 6.90356 25.3124 7.47954 24.9572 7.83479C24.6019 8.19005 24.0259 8.19005 23.6707 7.83479L23.0275 7.19155L22.3842 7.83479C22.3766 7.84245 22.3688 7.84994 22.3609 7.85727C24.2986 10.0916 25.4711 13.0073 25.4711 16.1971C25.4711 23.2307 19.7692 28.9326 12.7355 28.9326C5.7019 28.9326 0 23.2307 0 16.1971C0 9.781 4.74397 4.47376 10.9162 3.59055V2.55179C10.4138 2.55179 10.0065 2.14451 10.0065 1.64211ZM12.7355 5.28085C12.4525 5.28085 12.1722 5.2916 11.8949 5.31269C6.2593 5.7414 1.81936 10.4512 1.81936 16.1971C1.81936 22.2259 6.7067 27.1133 12.7355 27.1133C18.7644 27.1133 23.6517 22.2259 23.6517 16.1971C23.6517 10.4512 19.2118 5.7414 13.5762 5.31269C13.2989 5.2916 13.0186 5.28085 12.7355 5.28085Z" fill="#FEFE84"/>
<path d="M11.8366 11.3404C11.8366 10.8418 12.2408 10.4376 12.7394 10.4376C13.238 10.4376 13.6422 10.8418 13.6422 11.3404V17.7336C13.6422 18.0576 13.4686 18.3567 13.1873 18.5175L8.52661 20.4698C8.09371 20.7171 7.54224 20.5667 7.29487 20.1338C7.0475 19.7009 7.1979 19.1495 7.6308 18.9021L11.8366 17.2097V11.3404Z" fill="#FEFE84"/>
</svg>
