<svg width="24" height="20" viewBox="0 0 24 20" fill="none" xmlns="http://www.w3.org/2000/svg">
<path d="M23.6374 2.046C23.6376 1.86408 23.5881 1.68538 23.4941 1.5281C23.4001 1.37081 23.2649 1.24057 23.1022 1.15062C22.9396 1.06067 22.7554 1.01424 22.5683 1.01604C22.3812 1.01785 22.1979 1.06783 22.0372 1.16091C21.4172 1.51971 20.7497 1.79449 20.0532 1.97763C19.0585 1.14776 17.7899 0.693636 16.4793 0.698277C15.0414 0.699887 13.6605 1.24474 12.628 2.2178C11.5956 3.19085 10.9925 4.51593 10.9461 5.91324C8.11151 5.47373 5.54244 4.03521 3.7288 1.87199C3.61953 1.74308 3.47997 1.64161 3.3219 1.57614C3.16383 1.51067 2.99189 1.48312 2.82058 1.49581C2.64936 1.50952 2.48415 1.56358 2.33924 1.6533C2.19433 1.74302 2.07408 1.86572 1.98889 2.01077C1.55197 2.75212 1.30104 3.58321 1.25647 4.43654C1.21189 5.28988 1.37493 6.14141 1.73235 6.92198L1.73028 6.92399C1.56964 7.02019 1.43707 7.15485 1.34525 7.3151C1.25343 7.47535 1.20542 7.65582 1.20582 7.83926C1.20388 7.99058 1.21321 8.14184 1.23376 8.29185C1.34195 9.58776 1.93264 10.8008 2.89505 11.7035C2.82976 11.8244 2.78992 11.9568 2.77784 12.0928C2.76576 12.2289 2.78169 12.366 2.82471 12.496C3.24429 13.7671 4.13659 14.8402 5.327 15.5053C4.11758 15.96 2.81171 16.1185 1.52443 15.9669C1.28617 15.9379 1.04483 15.9884 0.839987 16.1102C0.635146 16.2321 0.478969 16.418 0.397077 16.6374C0.315184 16.8569 0.312437 17.0969 0.389287 17.3181C0.466136 17.5393 0.618019 17.7286 0.820021 17.8548C3.03397 19.2412 5.61176 19.9783 8.24517 19.978C11.2315 20.0107 14.1452 19.0828 16.533 17.3388C18.9209 15.5948 20.649 13.1323 21.4486 10.3346C21.8226 9.11579 22.0135 7.85088 22.0155 6.57903C22.0155 6.51164 22.0155 6.44225 22.0144 6.37285C22.5675 5.79294 22.9959 5.11151 23.2746 4.36853C23.5533 3.62554 23.6767 2.83593 23.6374 2.046ZM20.1349 5.35399C19.9599 5.55518 19.8714 5.81416 19.8876 6.07715C19.898 6.24709 19.8969 6.41805 19.8969 6.57903C19.8948 7.65379 19.7328 8.7226 19.4159 9.75226C18.7629 12.1328 17.3071 14.2314 15.2817 15.712C13.2564 17.1925 10.7786 17.9694 8.24517 17.9182C7.33514 17.9184 6.42824 17.8145 5.54324 17.6084C6.67178 17.2548 7.72699 16.7096 8.65997 15.9981C8.83181 15.8666 8.95757 15.6866 9.02 15.4828C9.08243 15.2789 9.07846 15.0614 9.00865 14.8598C8.93884 14.6583 8.8066 14.4827 8.63008 14.3572C8.45356 14.2316 8.2414 14.1622 8.02272 14.1586C7.1423 14.1453 6.30157 13.8002 5.67767 13.196C5.83594 13.1669 5.99318 13.1307 6.14937 13.0874C6.37818 13.0241 6.57842 12.8877 6.71783 12.7003C6.85725 12.5129 6.92774 12.2853 6.91794 12.0542C6.90815 11.8231 6.81864 11.6019 6.66384 11.4262C6.50903 11.2506 6.29794 11.1307 6.06455 11.0859C5.5535 10.9878 5.0726 10.7764 4.65925 10.4682C4.24589 10.1599 3.91121 9.76317 3.68122 9.30871C3.87266 9.33412 4.06532 9.34989 4.25843 9.35598C4.48785 9.35935 4.71242 9.29169 4.89968 9.16278C5.08694 9.03386 5.22717 8.85038 5.3001 8.63886C5.36999 8.42543 5.3664 8.19565 5.28986 7.98438C5.21332 7.77311 5.06802 7.59187 4.87599 7.46814C4.41007 7.16634 4.02842 6.7569 3.76521 6.27648C3.50199 5.79606 3.36544 5.25966 3.36779 4.71533C3.36779 4.64695 3.36985 4.57855 3.37399 4.51116C5.74807 6.66395 8.82739 7.93301 12.0694 8.09475C12.2331 8.10102 12.3961 8.07105 12.546 8.0071C12.696 7.94316 12.8291 7.84691 12.9353 7.72563C13.0403 7.60317 13.1147 7.45868 13.1526 7.30352C13.1904 7.14837 13.1907 6.98678 13.1535 6.83149C13.0929 6.58572 13.062 6.33391 13.0614 6.08118C13.0624 5.20012 13.4228 4.35542 14.0635 3.73242C14.7043 3.10942 15.573 2.75901 16.4792 2.75808C16.9454 2.75687 17.4068 2.84964 17.8343 3.03054C18.2618 3.21144 18.646 3.47655 18.9628 3.80912C19.085 3.93691 19.2388 4.03219 19.4095 4.08589C19.5803 4.1396 19.7623 4.14993 19.9383 4.11592C20.3734 4.03359 20.8023 3.9227 21.222 3.78402C20.9357 4.35354 20.5699 4.88186 20.1349 5.35399Z" fill="#927F4E"/>
</svg>
