<svg width="26" height="20" viewBox="0 0 26 20" fill="none" xmlns="http://www.w3.org/2000/svg">
<path d="M13.3606 18.8427C9.80278 19.3009 6.98618 18.8427 4.16957 18.5372C1.35296 18.2317 0.463503 17.3152 0.31526 14.2602C0.167018 11.5107 0.0187683 8.60844 0.0187683 5.85894C0.0187683 2.3457 1.20471 1.12371 4.61429 0.665457C10.2475 -0.0982922 15.8807 0.359939 21.5139 1.12369C23.1446 1.27644 24.1823 2.04021 24.4788 3.72045C25.3683 7.38645 25.3683 11.2052 24.9235 15.0239C24.627 17.1624 22.9964 18.2317 20.921 18.5372C18.4008 18.9955 15.5842 18.9954 13.3606 18.8427ZM9.80278 14.5657C12.6194 13.802 14.9913 12.2745 17.2149 10.136C14.843 8.30297 12.4711 7.08093 9.5063 5.70618C9.5063 8.91393 9.20981 11.6635 9.80278 14.5657Z" fill="#927F4E"/>
</svg>
